<svg width="138" height="138" viewBox="0 0 138 138" fill="none" xmlns="http://www.w3.org/2000/svg">
<path d="M69.0002 20.1805L79.9608 53.914H115.43L86.7349 74.7624L97.6956 108.496L69.0002 87.6475L40.3048 108.496L51.2655 74.7624L22.5701 53.914H58.0395L69.0002 20.1805Z" fill="#9F2042"/>
<path d="M83.0771 22.2541L83.8453 57.7152L117.808 67.9426L84.3202 79.6314L85.0885 115.093L63.6234 86.8554L30.1352 98.5442L50.3572 69.404L28.8921 41.1669L62.8551 51.3943L83.0771 22.2541Z" fill="#9F2042"/>
<path d="M94.4194 27.3208L86.212 61.8276L116.494 80.2966L81.1395 83.154L72.9321 117.661L59.2894 84.92L23.9352 87.7775L50.8578 64.6851L37.2152 31.9443L67.4969 50.4132L94.4194 27.3208Z" fill="#9F2042"/>
<path d="M104.693 35.6927L87.5079 66.721L111.707 92.6533L76.8869 85.8975L59.7017 116.926L55.3668 81.7222L20.5467 74.9665L52.6877 59.9652L48.3528 24.7617L72.552 50.694L104.693 35.6927Z" fill="#9F2042"/>
<path d="M110.821 43.8137L87.578 70.6064L105.877 100.991L73.2131 87.1652L49.9701 113.958L53.0257 78.6202L20.3619 64.7943L54.9142 56.7804L57.9698 21.4428L76.2687 51.8276L110.821 43.8137Z" fill="#9F2042"/>
</svg>
